<?xml version="1.0" encoding="UTF-8" standalone="no"?>
<!DOCTYPE svg PUBLIC "-//W3C//DTD SVG 1.1//EN" "http://www.w3.org/Graphics/SVG/1.1/DTD/svg11.dtd">
<!-- Created with Vectornator (http://vectornator.io/) -->
<svg height="100%" stroke-miterlimit="10" style="fill-rule:nonzero;clip-rule:evenodd;stroke-linecap:round;stroke-linejoin:round;" version="1.1" viewBox="0 0 3840 2160" width="100%" xml:space="preserve" xmlns="http://www.w3.org/2000/svg" xmlns:vectornator="http://vectornator.io" xmlns:xlink="http://www.w3.org/1999/xlink">
<defs/>
<g id="圖層1">
<g opacity="1">
<path d="M1163.69 496.688C1143.49 496.198 1124 507.619 1115.16 527.188C1095.62 570.419 1076.29 613.787 1058.75 657.875C1051.72 675.546 1044.99 693.363 1038.97 711.406C1033.68 727.255 1028.93 743.304 1025.47 759.656C1019.64 787.16 1017.37 816.772 1028.19 843.406C1029.65 847.009 1031.34 850.519 1033.25 853.906C1035.82 858.473 1038.81 862.806 1042.16 866.844C1046.29 871.833 1050.98 876.365 1056.09 880.344C1081.56 900.163 1114.67 904.431 1145.94 905.062C1151.52 905.175 1157.11 905.148 1162.69 905.062C1170.34 904.945 1178.01 904.692 1185.66 904.344C1211.24 903.177 1236.76 901.189 1262.31 899.469C1291.56 897.499 1320.83 895.792 1350.12 894.75C1390.95 893.297 1431.83 893.115 1472.66 894.562C1501.75 895.594 1530.81 897.493 1559.81 900.062C1588.33 902.59 1613.47 881.519 1616 853C1618.53 824.481 1597.46 799.309 1568.94 796.781C1518.61 792.321 1468.15 789.96 1417.62 789.875C1367.32 789.79 1317.04 792.006 1266.84 795.281C1248.33 796.489 1229.83 797.826 1211.31 799.031C1196.5 799.995 1181.68 800.885 1166.84 801.281C1155.99 801.571 1145.07 801.655 1134.25 800.688C1130.93 800.391 1127.64 799.932 1124.38 799.281C1124.39 798.895 1124.35 798.514 1124.38 798.125C1124.73 792.413 1125.72 786.748 1126.91 781.156C1130.9 762.327 1137.14 743.97 1143.72 725.906C1152.4 702.076 1162.07 678.617 1172 655.281C1184.18 626.656 1196.85 598.222 1209.66 569.875C1221.45 543.784 1209.84 513.07 1183.75 501.281C1177.23 498.334 1170.42 496.851 1163.69 496.688Z" fill="#000000" stroke="none"/>
</g>
<g opacity="1">
<path d="M1333.41 507.25C1331.65 507.253 1329.87 507.347 1328.09 507.531C1299.61 510.475 1278.93 535.958 1281.88 564.438C1286.95 613.527 1290.69 662.722 1293.34 712C1300.8 850.532 1300.32 989.322 1302.03 1128C1302.84 1193.74 1304.1 1259.47 1306.88 1325.16C1308.14 1355.07 1309.81 1384.99 1311.72 1414.88C1313.55 1443.45 1338.18 1465.11 1366.75 1463.28C1395.32 1461.45 1417.01 1436.82 1415.19 1408.25C1411.45 1349.85 1409.04 1291.38 1407.59 1232.88C1404.07 1090.34 1405.43 947.737 1401 805.219C1398.39 721.254 1393.64 637.354 1385 553.781C1382.24 527.082 1359.68 507.203 1333.41 507.25Z" fill="#000000" stroke="none"/>
</g>
<g opacity="1">
<path d="M1925.44 543.625C1909.97 543.35 1894.49 544.725 1879.28 547.562C1835.04 555.819 1794 575.9 1756.69 600.562C1732.8 616.349 1726.24 648.49 1742.03 672.375C1749.14 683.124 1759.6 690.163 1771.09 693.438C1745.98 714.611 1723.32 738.692 1704.06 765.312C1683.3 794.019 1666.44 825.552 1654.06 858.75C1624.25 938.741 1620.32 1027.99 1642.12 1110.47C1645.18 1122.04 1648.74 1133.5 1652.84 1144.75C1675.36 1206.55 1714.38 1264.49 1770.62 1300.16C1778.78 1305.33 1787.28 1309.98 1796.03 1314.06C1807.85 1319.58 1820.14 1324.01 1832.78 1327.25C1848.91 1331.39 1865.53 1333.59 1882.19 1333.75C1904 1333.96 1925.77 1330.72 1946.69 1324.59C1980.05 1314.82 2011.02 1297.93 2038.84 1277.25C2052.48 1267.12 2065.3 1256.02 2077 1243.69C2105.29 1213.87 2126.93 1178.15 2142.91 1140.41C2165.84 1086.21 2177.56 1027.76 2181.38 969.188C2182.62 950.133 2182.87 931.022 2182.34 911.938C2181.63 885.866 2179.17 859.821 2175.09 834.062C2169.4 798.121 2160.48 762.501 2147.34 728.531C2125.39 671.739 2091.71 617.35 2041.22 581.781C2033.45 576.312 2025.35 571.312 2016.94 566.906C2006.87 561.635 1996.36 557.191 1985.56 553.656C1971.08 548.917 1956.05 545.828 1940.88 544.438C1935.74 543.967 1930.59 543.717 1925.44 543.625ZM1923.03 647.25C1930.71 647.351 1938.38 648.29 1945.84 650.094C1982.96 659.067 2010.75 689.33 2029.34 721.219C2032.4 726.455 2035.32 731.767 2038.03 737.188C2041.49 744.087 2044.63 751.126 2047.59 758.25C2051.2 766.93 2054.38 775.803 2057.25 784.75C2070.37 825.607 2076.99 868.48 2078.56 911.312C2080.51 964.431 2074.62 1018.16 2058.81 1069C2054.32 1083.45 2048.83 1097.63 2042.38 1111.31C2028.19 1141.39 2008.83 1169.22 1982.47 1189.84C1964.26 1204.09 1944.08 1216.43 1922.03 1223.69C1910.75 1227.4 1898.99 1229.72 1887.09 1230.03C1879.54 1230.23 1871.95 1229.62 1864.53 1228.19C1841.53 1223.73 1820.96 1211.24 1804.09 1195.28C1787.62 1179.7 1774.48 1160.82 1764.06 1140.75C1758.1 1129.26 1752.96 1117.28 1748.78 1105.03C1745.16 1094.41 1742.05 1083.64 1739.59 1072.69C1726.15 1012.64 1730.35 948.407 1752.72 891C1761.69 867.982 1773.58 846.112 1788.06 826.094C1802.71 805.841 1820 787.533 1839.19 771.531C1848.35 763.891 1857.97 756.832 1867.88 750.188C1891.65 734.24 1898.01 702.029 1882.06 678.25C1876.81 670.419 1869.71 664.658 1861.81 660.781C1868.04 658.162 1874.37 655.791 1880.84 653.812C1894.49 649.64 1908.72 647.062 1923.03 647.25Z" fill="#000000" stroke="none"/>
</g>
<g opacity="1">
<path d="M2046.88 719.125C2033.65 718.078 2020.02 722.083 2009.12 731.375C1950.19 781.663 1896.88 838.23 1846.88 897.312C1785.78 969.494 1729.66 1045.7 1676.09 1123.59C1659.87 1147.19 1665.85 1179.46 1689.44 1195.69C1713.03 1211.91 1745.31 1205.94 1761.53 1182.34C1813.13 1107.3 1867.17 1033.82 1926.03 964.281C1972.42 909.478 2021.73 856.899 2076.41 810.25C2098.19 791.666 2100.8 758.937 2082.22 737.156C2072.93 726.266 2060.1 720.172 2046.88 719.125Z" fill="#000000" stroke="none"/>
</g>
<g opacity="1">
<path d="M2489.38 508.375C2467.29 509.257 2447.42 524.31 2441.41 546.781C2431.15 585.08 2418.76 622.783 2403.22 659.281C2391.72 686.283 2378.48 712.453 2363.78 737.844C2357.93 747.941 2351.83 757.887 2346.06 768.031C2337.68 782.788 2330.25 798.328 2330.62 815.75C2330.69 818.876 2330.96 821.818 2331.5 824.906C2332.08 828.22 2333 831.687 2334.16 834.844C2336.1 840.125 2338.76 845.115 2342.12 849.625C2345.31 853.888 2349.04 857.684 2353.25 860.938C2356.74 863.638 2360.54 865.926 2364.53 867.812C2381.05 875.625 2399.76 875.386 2417.59 874.406C2434.22 873.493 2450.81 871.889 2467.41 870.5C2488.86 868.704 2510.33 867.082 2531.81 865.75C2589.08 862.201 2646.47 860.718 2703.84 860.688C2732.47 860.672 2755.67 837.444 2755.66 808.812C2755.64 780.181 2732.44 756.985 2703.81 757C2639.67 757.034 2575.5 758.85 2511.5 763.156C2496.42 764.171 2481.37 765.456 2466.31 766.688C2470.23 759.449 2474.15 752.207 2477.84 744.844C2495.98 708.666 2511.22 671.087 2523.97 632.688C2530.45 613.178 2536.25 593.449 2541.56 573.594C2548.97 545.937 2532.53 517.499 2504.88 510.094C2499.69 508.705 2494.47 508.171 2489.38 508.375Z" fill="#000000" stroke="none"/>
</g>
<g opacity="1">
<path d="M2573.12 567.25C2569.68 567.246 2566.19 567.568 2562.69 568.281C2534.63 573.99 2516.51 601.381 2522.22 629.438C2525.07 643.439 2527.57 657.484 2529.62 671.625C2539.69 740.87 2540.72 811.161 2539.12 881C2537.45 954.577 2532.62 1028.02 2530.03 1101.56C2529.06 1129.13 2528.49 1156.73 2528.41 1184.31C2528.32 1212.94 2551.43 1236.22 2580.06 1236.31C2608.69 1236.4 2631.97 1213.26 2632.06 1184.62C2632.4 1075.92 2641.83 967.493 2643.22 858.812C2644.03 795.394 2642.2 731.783 2633.91 668.844C2631.25 648.701 2627.86 628.657 2623.81 608.75C2618.82 584.201 2597.24 567.277 2573.12 567.25Z" fill="#000000" stroke="none"/>
</g>
</g>
</svg>
